PathFileType	4	(X/Y/Z)	C:\Documents and Settings\rtobon\Desktop\NewMocap\New\NoT\ActorC_TPose.trc
DataRate	CameraRate	NumFrames	NumMarkers	Units	OrigDataRate	OrigDataStartFrame	OrigNumFrames
120.00	120.00	       7	49	mm	120.00	70	       277
Frame#	Time	Root			LtFtHip			LtBkHip			RtFtHip			RtBkHip			Spine1			Spine2			Spine3			SpineOffsetLow			SpineOffsetHigh			LtCtChest			RtCtChest			LtChest			RtChest			LtShoulder			LtBicep			LtElbow			LtForeArm			LtWrist			LtPinky			LtThumb			LtMiddFing			RtShoulder			RtBicep			RtElbow			RtForeArm			RtWrist			RtPinky			RtThumb			RtMiddFing			LtThigh			LtKnee			LtCalf			LtAnkle			LtHeel			LtBall			LtToe			RtThigh			RtKnee			RtCalf			RtAnkle			RtHeel			RtBall			RtToe			TopHead			LfFtHead			LtBkHead			RtFtHead			RtBkHead			
		X1	Y1	Z1	X2	Y2	Z2	X3	Y3	Z3	X4	Y4	Z4	X5	Y5	Z5	X6	Y6	Z6	X7	Y7	Z7	X8	Y8	Z8	X9	Y9	Z9	X10	Y10	Z10	X11	Y11	Z11	X12	Y12	Z12	X13	Y13	Z13	X14	Y14	Z14	X15	Y15	Z15	X16	Y16	Z16	X17	Y17	Z17	X18	Y18	Z18	X19	Y19	Z19	X20	Y20	Z20	X21	Y21	Z21	X22	Y22	Z22	X23	Y23	Z23	X24	Y24	Z24	X25	Y25	Z25	X26	Y26	Z26	X27	Y27	Z27	X28	Y28	Z28	X29	Y29	Z29	X30	Y30	Z30	X31	Y31	Z31	X32	Y32	Z32	X33	Y33	Z33	X34	Y34	Z34	X35	Y35	Z35	X36	Y36	Z36	X37	Y37	Z37	X38	Y38	Z38	X39	Y39	Z39	X40	Y40	Z40	X41	Y41	Z41	X42	Y42	Z42	X43	Y43	Z43	X44	Y44	Z44	X45	Y45	Z45	X46	Y46	Z46	X47	Y47	Z47	X48	Y48	Z48	X49	Y49	Z49	

70	0.575	31.89312	977.74658	-149.94913	163.90245	935.61523	58.07417	164.01717	971.20099	-116.57609	-109.59039	931.05957	64.12897	-106.81047	950.99719	-126.22957	32.03710	1137.01685	-145.44006	33.97858	1279.08643	-149.09340	43.00083	1406.54468	-116.34867	-52.51886	1044.25696	-135.14188	132.34377	1352.82642	-134.54874	56.49721	1214.19348	114.13985	-3.06738	1285.25244	99.72611	129.45041	1323.91687	80.17556	-71.33620	1330.72729	68.22810	167.38220	1425.93445	-18.05557	361.65634	1380.27686	-12.32965	479.30566	1361.93030	-82.23009	589.58405	1368.29150	4.81441	709.83630	1374.93274	-15.19443	772.76044	1340.38684	-59.40582	738.07837	1352.49622	51.92249	764.37238	1380.99353	-2.95460	-110.58827	1426.48828	-39.85670	-295.49359	1379.73108	4.23719	-405.40634	1374.33679	-105.25606	-530.60675	1388.65979	2.24851	-653.54449	1416.18457	-39.20676	-716.49225	1377.17297	-83.40910	-677.59314	1378.68250	33.24884	-717.01935	1413.40955	-26.49014	170.86517	681.04852	61.43834	192.98500	487.42041	-16.99205	203.97621	375.64017	-140.35365	203.46954	167.29642	-84.21346	151.89554	46.19519	-173.09726	212.11278	64.30915	4.35265	154.66989	57.64276	99.26334	-128.42793	671.55402	52.53000	-159.79146	511.99207	-24.28875	-189.70576	376.55463	-129.78098	-181.96120	166.01735	-98.05339	-122.64402	47.89280	-170.65057	-205.95834	65.32327	5.52892	-150.56465	65.00368	100.77838	33.47133	1692.00171	-35.77519	92.61125	1626.52930	60.09923	123.75716	1547.00024	-68.55031	-45.34372	1625.58044	39.65672	-34.58801	1545.63696	-97.29611	
71	0.583	31.92906	977.63849	-149.99606	163.66362	935.76318	57.43005	164.01451	971.17767	-116.68349	-109.44691	931.01794	63.88791	-106.96297	950.98151	-126.10719	32.03710	1137.01685	-145.44006	34.17818	1279.00232	-149.05528	43.07801	1406.50024	-116.27892	-52.70774	1043.73364	-134.94296	132.44576	1352.84875	-134.84380	56.60218	1214.17737	113.73656	-3.03030	1285.23987	99.81571	129.45041	1323.91687	80.17556	-71.21719	1330.75549	68.15881	167.37337	1425.87610	-18.13505	361.78989	1380.30090	-12.25580	479.44199	1361.85132	-82.36980	589.51007	1368.20508	4.91653	709.84607	1374.69568	-14.72047	772.65131	1340.17920	-59.45533	738.08258	1352.25696	51.99925	764.35321	1380.85730	-2.89396	-110.54142	1426.42395	-39.94234	-295.64270	1379.84790	4.05603	-405.54971	1374.47400	-105.35624	-530.60675	1388.65979	2.24851	-653.63782	1416.20447	-39.89857	-716.47717	1377.12402	-83.31955	-677.63361	1378.58875	33.15620	-716.70117	1413.20520	-26.32825	170.86517	681.04852	61.43834	193.06570	487.49786	-16.98267	204.04907	375.63449	-140.27264	203.46954	167.29642	-84.21346	151.89554	46.19519	-173.09726	212.43736	64.26082	4.57244	154.67996	57.66364	99.31015	-128.35696	671.48523	52.46397	-159.70036	511.95526	-24.29744	-189.70576	376.55463	-129.78098	-182.15102	165.94498	-98.19042	-122.77256	47.91259	-170.77008	-205.95834	65.32327	5.52892	-150.56465	65.00368	100.77838	33.49475	1692.06030	-35.92274	92.35754	1626.54321	60.05257	123.67638	1547.02515	-68.50093	-45.39882	1625.42480	39.47905	-34.49498	1545.61279	-97.75395	
72	0.592	31.92906	977.63849	-149.99606	163.99835	935.58032	57.85392	164.01175	971.09058	-116.77676	-109.44691	931.01794	63.88791	-106.89613	951.07562	-126.34281	32.03710	1137.01685	-145.44006	34.32162	1278.84583	-148.95068	43.14193	1406.50256	-116.39563	-52.55732	1044.05762	-135.24997	132.54034	1352.85498	-135.18466	56.38259	1214.17993	113.42765	-3.06738	1285.25244	99.72611	129.53743	1323.96631	79.95648	-71.21172	1330.73389	67.97713	167.20537	1425.50085	-18.68827	361.82587	1380.24585	-12.30651	479.43384	1361.79980	-82.42438	589.48029	1368.22192	4.84157	709.81012	1374.50024	-14.68970	772.70465	1340.16296	-59.37009	738.15125	1352.13306	51.99956	764.31317	1380.66956	-2.82751	-110.52676	1426.47107	-40.11076	-295.62875	1379.85437	4.03797	-405.52390	1374.29602	-105.35774	-530.71796	1388.50854	2.24052	-654.89801	1417.77344	-40.94067	-716.55530	1377.12695	-83.58547	-677.49329	1378.28674	33.16412	-716.46722	1412.87036	-26.06608	170.96063	680.99237	61.33685	193.06570	487.49786	-16.98267	204.04907	375.63449	-140.27264	203.46954	167.29642	-84.21346	151.89554	46.19519	-173.09726	212.09813	64.10079	4.16707	154.67722	57.61527	99.31350	-128.35696	671.48523	52.46397	-159.62984	512.06616	-24.39897	-189.70576	376.55463	-129.78098	-182.03363	165.88074	-98.08423	-122.65002	47.81829	-170.71246	-205.95834	65.32327	5.52892	-150.56465	65.00368	100.77838	33.47591	1692.05566	-35.91663	92.33541	1626.59827	60.08656	123.75716	1547.00024	-68.55031	-45.64255	1625.41370	39.19680	-34.48802	1545.62256	-97.63464	
73	0.600	31.92906	977.63849	-149.99606	163.88669	935.64130	57.71270	164.08409	971.11810	-116.81220	-109.52099	931.03760	63.81151	-106.89613	951.07562	-126.34281	32.03710	1137.01685	-145.44006	34.32162	1278.84583	-148.95068	43.10869	1406.43152	-116.63615	-52.55732	1044.05762	-135.24997	132.40947	1352.98169	-135.43239	56.46309	1214.23718	113.54065	-3.06738	1285.25244	99.72611	129.52571	1323.91528	79.78017	-71.25415	1330.79370	67.94778	167.22243	1425.45422	-18.66585	361.86542	1380.20801	-12.48995	479.43384	1361.79980	-82.42438	589.44977	1368.02380	4.86116	709.86719	1374.47815	-14.52845	772.70966	1340.14893	-59.37273	738.20538	1352.04517	52.05490	764.39984	1380.43567	-2.93494	-110.57144	1426.61011	-40.22678	-295.67386	1379.85425	3.78376	-405.61307	1374.34924	-105.43607	-530.67792	1388.49829	2.27790	-653.50006	1416.08032	-39.48756	-716.55530	1377.12695	-83.58547	-677.54474	1378.24365	33.16800	-716.39563	1412.67017	-26.03219	170.84877	680.95300	61.26874	193.06570	487.49786	-16.98267	204.02342	375.57864	-140.34023	203.46954	167.29642	-84.21346	151.90030	46.04170	-172.92029	211.93874	64.08714	4.37620	154.69719	57.67778	99.32336	-128.38506	671.55078	52.42884	-159.70384	512.01880	-24.42900	-189.65527	376.47919	-130.02736	-181.93085	165.97145	-98.17651	-122.65002	47.81829	-170.71246	-205.95834	65.32327	5.52892	-150.49771	65.00893	100.73482	33.51538	1692.03174	-35.82100	92.29646	1626.55994	60.00200	123.70044	1547.08521	-68.56171	-45.59145	1625.30042	39.21877	-34.39230	1545.68604	-97.82792	
74	0.608	32.17127	977.83173	-150.29199	163.68982	935.36694	56.93089	164.08409	971.11810	-116.81220	-109.52099	931.03760	63.81151	-106.79837	950.99365	-126.48016	32.03710	1137.01685	-145.44006	34.20843	1278.91638	-149.10577	43.06596	1406.44470	-116.71039	-52.52637	1044.04724	-135.42699	132.44533	1352.97974	-135.49821	56.39786	1214.28662	113.47970	-3.05595	1285.29663	99.58083	129.48549	1323.82190	79.71843	-71.22086	1330.71936	67.68493	167.25378	1425.41724	-18.90245	361.83258	1380.23511	-12.46765	479.36761	1361.65894	-82.40520	589.57092	1368.12488	4.88790	709.93488	1374.49133	-14.45940	772.56543	1340.05896	-59.37384	738.27240	1351.94434	51.99617	764.42712	1380.22302	-3.04543	-110.58052	1426.42627	-40.58445	-295.63391	1379.79004	3.85827	-405.75873	1374.41504	-105.41415	-530.74005	1388.26990	2.19134	-653.60236	1416.00439	-39.48687	-716.59729	1377.06995	-83.51917	-677.39124	1378.18469	33.10480	-716.50165	1412.67444	-26.07564	170.90547	681.10132	61.33988	193.06570	487.49786	-16.98267	203.97621	375.64017	-140.35365	203.46954	167.29642	-84.21346	151.90030	46.04170	-172.92029	212.31989	63.92789	4.96360	154.62756	57.64577	99.31835	-128.38506	671.55078	52.42884	-159.62984	512.06616	-24.39897	-189.65527	376.47919	-130.02736	-182.09982	165.91148	-98.13489	-122.65002	47.81829	-170.71246	-205.95834	65.32327	5.52892	-150.49992	64.94526	100.76525	33.56201	1692.05701	-35.90651	92.26692	1626.61438	60.12440	123.87381	1547.21643	-68.60615	-45.60345	1625.41626	39.11086	-34.12119	1545.69287	-97.37012	
75	0.617	32.13444	977.74689	-150.40584	163.71233	935.60004	57.10030	164.01486	971.04425	-116.91530	-109.57388	931.06500	63.74899	-106.70689	951.02661	-126.74481	31.87898	1137.00171	-145.70448	34.36356	1278.80029	-149.01489	43.16369	1406.49219	-116.67020	-52.50897	1043.93945	-135.49203	132.36217	1353.09082	-135.78906	56.35066	1214.00146	113.37282	-2.97104	1285.13586	99.18993	129.46027	1323.87305	79.68218	-71.18879	1330.64087	67.62345	167.40787	1425.42139	-18.95169	361.86542	1380.20801	-12.48995	479.30783	1361.44824	-82.44692	589.52032	1368.08911	4.95872	709.98315	1374.25818	-15.00336	772.68225	1339.87354	-59.25074	738.27289	1351.82605	52.03271	762.76056	1377.88208	-2.38198	-110.51711	1426.46826	-40.52031	-295.69379	1379.89917	3.69017	-405.59009	1374.24658	-105.54699	-530.70587	1388.20325	2.21467	-653.54712	1416.03931	-39.41324	-716.71808	1376.89575	-83.43066	-677.32159	1378.11707	33.29237	-716.41492	1412.45190	-26.15949	170.95871	681.00916	61.35717	193.07498	487.57407	-17.05370	204.02342	375.57864	-140.34023	203.47432	167.21832	-84.28647	151.79202	46.09950	-173.24336	212.12311	64.20921	4.47501	154.67722	57.61527	99.31350	-128.26237	671.45544	52.43586	-159.64845	511.98199	-24.57743	-189.65527	376.47919	-130.02736	-182.09982	165.91148	-98.13489	-122.56607	47.96237	-170.73114	-205.95834	65.32327	5.52892	-150.49771	65.00893	100.73482	33.47305	1692.05859	-35.97192	92.23969	1626.56067	60.08558	123.86405	1547.04846	-68.62333	-45.73365	1625.33887	39.07404	-34.29400	1545.78345	-98.03625	
76	0.625	32.19462	977.64612	-150.48448	163.63937	935.57434	56.44002	163.98627	970.91138	-117.01634	-109.60304	930.94611	63.61329	-106.70689	951.02661	-126.74481	32.01570	1136.73096	-145.55544	34.45864	1278.94922	-149.20033	43.12095	1406.50525	-116.74443	-52.38499	1044.07153	-135.93472	132.29630	1352.99841	-135.87012	56.30270	1214.17908	113.18156	-2.89396	1285.11951	98.77035	129.37653	1323.87573	79.62988	-71.12135	1330.68250	67.64127	167.38054	1425.32739	-19.10346	361.84778	1380.18774	-12.56699	479.36258	1361.50488	-82.72649	589.38574	1367.81396	4.74639	709.82300	1374.12549	-15.07761	772.51318	1339.67065	-59.71688	738.39203	1351.65613	51.82366	762.81091	1377.80261	-2.41541	-110.56053	1426.45508	-40.81948	-295.78839	1379.79456	3.60637	-405.80469	1374.40479	-105.56246	-530.69421	1388.03699	2.07349	-653.56000	1415.90967	-39.59995	-716.66345	1376.89624	-83.62601	-677.15625	1377.94116	33.26582	-716.29144	1412.30457	-26.09087	170.92514	680.97235	61.19151	193.06570	487.49786	-16.98267	204.02342	375.57864	-140.34023	203.47525	167.38742	-84.30144	152.01343	46.14706	-173.14091	212.32799	64.17082	4.51692	154.61678	57.69433	99.32271	-128.29819	671.52698	52.40031	-159.67250	511.95486	-24.77390	-189.60603	376.51794	-129.90756	-182.13770	165.83641	-98.08555	-122.58883	47.71643	-170.72462	-205.95834	65.32327	5.52892	-150.56465	65.00368	100.77838	33.39135	1692.04041	-36.03004	92.21719	1626.57458	60.04823	123.87381	1547.21643	-68.60615	-45.65089	1625.37939	39.09762	-34.33611	1545.74341	-97.67942	
